<?xml version="1.0" standalone="no"?><svg xmlns="http://www.w3.org/2000/svg" viewBox="0 0 1440 320"><path fill="#0099ff" fill-opacity="1" d="M0,64L13.3,58.7C26.7,53,53,43,80,80C106.7,117,133,203,160,218.7C186.7,235,213,181,240,176C266.7,171,293,213,320,229.3C346.7,245,373,235,400,218.7C426.7,203,453,181,480,160C506.7,139,533,117,560,101.3C586.7,85,613,75,640,106.7C666.7,139,693,213,720,234.7C746.7,256,773,224,800,213.3C826.7,203,853,213,880,229.3C906.7,245,933,267,960,245.3C986.7,224,1013,160,1040,128C1066.7,96,1093,96,1120,106.7C1146.7,117,1173,139,1200,160C1226.7,181,1253,203,1280,176C1306.7,149,1333,75,1360,58.7C1386.7,43,1413,85,1427,106.7L1440,128L1440,320L1426.7,320C1413.3,320,1387,320,1360,320C1333.3,320,1307,320,1280,320C1253.3,320,1227,320,1200,320C1173.3,320,1147,320,1120,320C1093.3,320,1067,320,1040,320C1013.3,320,987,320,960,320C933.3,320,907,320,880,320C853.3,320,827,320,800,320C773.3,320,747,320,720,320C693.3,320,667,320,640,320C613.3,320,587,320,560,320C533.3,320,507,320,480,320C453.3,320,427,320,400,320C373.3,320,347,320,320,320C293.3,320,267,320,240,320C213.3,320,187,320,160,320C133.3,320,107,320,80,320C53.3,320,27,320,13,320L0,320Z"></path></svg>