<?xml version="1.0" standalone="no"?><svg xmlns="http://www.w3.org/2000/svg" viewBox="0 0 1440 320"><path fill="#0099ff" fill-opacity="1" d="M0,256L12.6,234.7C25.3,213,51,171,76,176C101.1,181,126,235,152,218.7C176.8,203,202,117,227,80C252.6,43,278,53,303,74.7C328.4,96,354,128,379,170.7C404.2,213,429,267,455,272C480,277,505,235,531,197.3C555.8,160,581,128,606,149.3C631.6,171,657,245,682,266.7C707.4,288,733,256,758,208C783.2,160,808,96,834,74.7C858.9,53,884,75,909,96C934.7,117,960,139,985,154.7C1010.5,171,1036,181,1061,170.7C1086.3,160,1112,128,1137,122.7C1162.1,117,1187,139,1213,170.7C1237.9,203,1263,245,1288,266.7C1313.7,288,1339,288,1364,288C1389.5,288,1415,288,1427,288L1440,288L1440,0L1427.4,0C1414.7,0,1389,0,1364,0C1338.9,0,1314,0,1288,0C1263.2,0,1238,0,1213,0C1187.4,0,1162,0,1137,0C1111.6,0,1086,0,1061,0C1035.8,0,1011,0,985,0C960,0,935,0,909,0C884.2,0,859,0,834,0C808.4,0,783,0,758,0C732.6,0,707,0,682,0C656.8,0,632,0,606,0C581.1,0,556,0,531,0C505.3,0,480,0,455,0C429.5,0,404,0,379,0C353.7,0,328,0,303,0C277.9,0,253,0,227,0C202.1,0,177,0,152,0C126.3,0,101,0,76,0C50.5,0,25,0,13,0L0,0Z"></path></svg>